<mxfile host="app.diagrams.net" modified="2024-07-23T19:02:14.842Z" agent="Mozilla/5.0 (Windows NT 10.0; Win64; x64) AppleWebKit/537.36 (KHTML, like Gecko) Chrome/126.0.0.0 Safari/537.36" etag="lGWYwyziJqcySXwsxsTH" version="24.7.1" type="device">
  <diagram id="2WGy25AUBtk22ILBmXkd" name="Page-1">
    <mxGraphModel dx="989" dy="592" grid="1" gridSize="10" guides="1" tooltips="1" connect="1" arrows="1" fold="1" page="1" pageScale="1" pageWidth="827" pageHeight="1169" math="0" shadow="0">
      <root>
        <mxCell id="0" />
        <mxCell id="1" parent="0" />
        <mxCell id="L83Ct_4AwCxYPiwyGT1B-1" value="1" style="rounded=0;whiteSpace=wrap;html=1;fillColor=none;strokeColor=#d79b00;strokeWidth=4;fontSize=18;fontStyle=1;fontColor=#FF0000;" parent="1" vertex="1">
          <mxGeometry x="380" y="10.000000000000114" width="40" height="40" as="geometry" />
        </mxCell>
        <mxCell id="L83Ct_4AwCxYPiwyGT1B-2" value="0" style="rounded=0;whiteSpace=wrap;html=1;fillColor=none;strokeColor=#82b366;strokeWidth=4;fontSize=18;fontStyle=1" parent="1" vertex="1">
          <mxGeometry x="140" y="100.00000000000011" width="40" height="40" as="geometry" />
        </mxCell>
        <mxCell id="L83Ct_4AwCxYPiwyGT1B-3" value="1" style="rounded=0;whiteSpace=wrap;html=1;fillColor=none;strokeColor=#82b366;strokeWidth=4;fontSize=18;fontStyle=1;fontColor=#FF0000;" parent="1" vertex="1">
          <mxGeometry x="300" y="100.00000000000011" width="40" height="40" as="geometry" />
        </mxCell>
        <mxCell id="L83Ct_4AwCxYPiwyGT1B-4" value="0" style="rounded=0;whiteSpace=wrap;html=1;fillColor=none;strokeColor=#82b366;strokeWidth=4;fontSize=18;fontStyle=1" parent="1" vertex="1">
          <mxGeometry x="460" y="100.00000000000011" width="40" height="40" as="geometry" />
        </mxCell>
        <mxCell id="L83Ct_4AwCxYPiwyGT1B-5" value="1" style="rounded=0;whiteSpace=wrap;html=1;fillColor=none;strokeColor=#82b366;strokeWidth=4;fontSize=18;fontStyle=1;fontColor=#FF0000;" parent="1" vertex="1">
          <mxGeometry x="620" y="100.00000000000011" width="40" height="40" as="geometry" />
        </mxCell>
        <mxCell id="L83Ct_4AwCxYPiwyGT1B-6" value="0" style="rounded=0;whiteSpace=wrap;html=1;fillColor=none;strokeColor=#6c8ebf;strokeWidth=4;fontSize=18;" parent="1" vertex="1">
          <mxGeometry x="80" y="190.0000000000001" width="40" height="40" as="geometry" />
        </mxCell>
        <mxCell id="L83Ct_4AwCxYPiwyGT1B-7" value="0" style="rounded=0;whiteSpace=wrap;html=1;fillColor=none;strokeColor=#6c8ebf;strokeWidth=4;fontSize=18;" parent="1" vertex="1">
          <mxGeometry x="120" y="190.0000000000001" width="40" height="40" as="geometry" />
        </mxCell>
        <mxCell id="L83Ct_4AwCxYPiwyGT1B-8" value="0" style="rounded=0;whiteSpace=wrap;html=1;fillColor=none;strokeColor=#6c8ebf;strokeWidth=4;fontSize=18;" parent="1" vertex="1">
          <mxGeometry x="160" y="190.0000000000001" width="40" height="40" as="geometry" />
        </mxCell>
        <mxCell id="L83Ct_4AwCxYPiwyGT1B-9" value="0" style="rounded=0;whiteSpace=wrap;html=1;fillColor=none;strokeColor=#6c8ebf;strokeWidth=4;fontSize=18;" parent="1" vertex="1">
          <mxGeometry x="200" y="190.0000000000001" width="40" height="40" as="geometry" />
        </mxCell>
        <mxCell id="L83Ct_4AwCxYPiwyGT1B-10" value="1" style="rounded=0;whiteSpace=wrap;html=1;fillColor=none;strokeColor=#6c8ebf;strokeWidth=4;fontSize=18;fontColor=#FF0000;" parent="1" vertex="1">
          <mxGeometry x="240" y="190.0000000000001" width="40" height="40" as="geometry" />
        </mxCell>
        <mxCell id="L83Ct_4AwCxYPiwyGT1B-11" value="1" style="rounded=0;whiteSpace=wrap;html=1;fillColor=none;strokeColor=#6c8ebf;strokeWidth=4;fontSize=18;fontColor=#FF0000;" parent="1" vertex="1">
          <mxGeometry x="280" y="190.0000000000001" width="40" height="40" as="geometry" />
        </mxCell>
        <mxCell id="L83Ct_4AwCxYPiwyGT1B-12" value="0" style="rounded=0;whiteSpace=wrap;html=1;fillColor=none;strokeColor=#6c8ebf;strokeWidth=4;fontSize=18;" parent="1" vertex="1">
          <mxGeometry x="320" y="190.0000000000001" width="40" height="40" as="geometry" />
        </mxCell>
        <mxCell id="L83Ct_4AwCxYPiwyGT1B-14" value="1" style="rounded=0;whiteSpace=wrap;html=1;fillColor=none;strokeColor=#6c8ebf;strokeWidth=4;fontSize=18;fontColor=#FF0000;" parent="1" vertex="1">
          <mxGeometry x="360" y="190.0000000000001" width="40" height="40" as="geometry" />
        </mxCell>
        <mxCell id="L83Ct_4AwCxYPiwyGT1B-15" value="0" style="rounded=0;whiteSpace=wrap;html=1;fillColor=none;strokeColor=#6c8ebf;strokeWidth=4;fontSize=18;" parent="1" vertex="1">
          <mxGeometry x="400" y="190.0000000000001" width="40" height="40" as="geometry" />
        </mxCell>
        <mxCell id="L83Ct_4AwCxYPiwyGT1B-16" value="0" style="rounded=0;whiteSpace=wrap;html=1;fillColor=none;strokeColor=#6c8ebf;strokeWidth=4;fontSize=18;" parent="1" vertex="1">
          <mxGeometry x="440" y="190.0000000000001" width="40" height="40" as="geometry" />
        </mxCell>
        <mxCell id="L83Ct_4AwCxYPiwyGT1B-17" value="0" style="rounded=0;whiteSpace=wrap;html=1;fillColor=none;strokeColor=#6c8ebf;strokeWidth=4;fontSize=18;" parent="1" vertex="1">
          <mxGeometry x="480" y="190.0000000000001" width="40" height="40" as="geometry" />
        </mxCell>
        <mxCell id="L83Ct_4AwCxYPiwyGT1B-18" value="0" style="rounded=0;whiteSpace=wrap;html=1;fillColor=none;strokeColor=#6c8ebf;strokeWidth=4;fontSize=18;" parent="1" vertex="1">
          <mxGeometry x="520" y="190.0000000000001" width="40" height="40" as="geometry" />
        </mxCell>
        <mxCell id="L83Ct_4AwCxYPiwyGT1B-19" value="1" style="rounded=0;whiteSpace=wrap;html=1;fillColor=none;strokeColor=#6c8ebf;strokeWidth=4;fontSize=18;fontColor=#FF0000;" parent="1" vertex="1">
          <mxGeometry x="560" y="190.0000000000001" width="40" height="40" as="geometry" />
        </mxCell>
        <mxCell id="L83Ct_4AwCxYPiwyGT1B-20" value="0" style="rounded=0;whiteSpace=wrap;html=1;fillColor=none;strokeColor=#6c8ebf;strokeWidth=4;fontSize=18;" parent="1" vertex="1">
          <mxGeometry x="600" y="190.0000000000001" width="40" height="40" as="geometry" />
        </mxCell>
        <mxCell id="L83Ct_4AwCxYPiwyGT1B-21" value="0" style="rounded=0;whiteSpace=wrap;html=1;fillColor=none;strokeColor=#6c8ebf;strokeWidth=4;fontSize=18;" parent="1" vertex="1">
          <mxGeometry x="640" y="190.0000000000001" width="40" height="40" as="geometry" />
        </mxCell>
        <mxCell id="L83Ct_4AwCxYPiwyGT1B-22" value="1" style="rounded=0;whiteSpace=wrap;html=1;fillColor=none;strokeColor=#6c8ebf;strokeWidth=4;fontSize=18;fontColor=#FF0000;" parent="1" vertex="1">
          <mxGeometry x="680" y="190.0000000000001" width="40" height="40" as="geometry" />
        </mxCell>
        <mxCell id="akLYsxsd0B85VEAz4jzC-1" value="" style="shape=curlyBracket;whiteSpace=wrap;html=1;rounded=1;flipH=1;labelPosition=right;verticalLabelPosition=middle;align=left;verticalAlign=middle;rotation=-90;" vertex="1" parent="1">
          <mxGeometry x="150" y="90" width="20" height="160" as="geometry" />
        </mxCell>
        <mxCell id="akLYsxsd0B85VEAz4jzC-2" value="" style="shape=curlyBracket;whiteSpace=wrap;html=1;rounded=1;flipH=1;labelPosition=right;verticalLabelPosition=middle;align=left;verticalAlign=middle;rotation=-90;" vertex="1" parent="1">
          <mxGeometry x="310" y="90" width="20" height="160" as="geometry" />
        </mxCell>
        <mxCell id="akLYsxsd0B85VEAz4jzC-3" value="" style="shape=curlyBracket;whiteSpace=wrap;html=1;rounded=1;flipH=1;labelPosition=right;verticalLabelPosition=middle;align=left;verticalAlign=middle;rotation=-90;" vertex="1" parent="1">
          <mxGeometry x="470" y="90" width="20" height="160" as="geometry" />
        </mxCell>
        <mxCell id="akLYsxsd0B85VEAz4jzC-4" value="" style="shape=curlyBracket;whiteSpace=wrap;html=1;rounded=1;flipH=1;labelPosition=right;verticalLabelPosition=middle;align=left;verticalAlign=middle;rotation=-90;" vertex="1" parent="1">
          <mxGeometry x="630" y="90" width="20" height="160" as="geometry" />
        </mxCell>
        <mxCell id="akLYsxsd0B85VEAz4jzC-5" value="" style="endArrow=classic;html=1;rounded=0;exitX=0.1;exitY=0.5;exitDx=0;exitDy=0;exitPerimeter=0;entryX=0.5;entryY=1;entryDx=0;entryDy=0;" edge="1" parent="1" source="akLYsxsd0B85VEAz4jzC-1" target="L83Ct_4AwCxYPiwyGT1B-2">
          <mxGeometry width="50" height="50" relative="1" as="geometry">
            <mxPoint x="360" y="130" as="sourcePoint" />
            <mxPoint x="410" y="80" as="targetPoint" />
          </mxGeometry>
        </mxCell>
        <mxCell id="akLYsxsd0B85VEAz4jzC-6" value="" style="endArrow=classic;html=1;rounded=0;exitX=0.1;exitY=0.5;exitDx=0;exitDy=0;exitPerimeter=0;entryX=0.5;entryY=1;entryDx=0;entryDy=0;" edge="1" parent="1" source="akLYsxsd0B85VEAz4jzC-2" target="L83Ct_4AwCxYPiwyGT1B-3">
          <mxGeometry width="50" height="50" relative="1" as="geometry">
            <mxPoint x="270" y="162" as="sourcePoint" />
            <mxPoint x="270" y="110" as="targetPoint" />
          </mxGeometry>
        </mxCell>
        <mxCell id="akLYsxsd0B85VEAz4jzC-7" value="" style="endArrow=classic;html=1;rounded=0;entryX=0.5;entryY=1;entryDx=0;entryDy=0;exitX=0.1;exitY=0.5;exitDx=0;exitDy=0;exitPerimeter=0;" edge="1" parent="1" source="akLYsxsd0B85VEAz4jzC-3" target="L83Ct_4AwCxYPiwyGT1B-4">
          <mxGeometry width="50" height="50" relative="1" as="geometry">
            <mxPoint x="510" y="130" as="sourcePoint" />
            <mxPoint x="500" y="120" as="targetPoint" />
          </mxGeometry>
        </mxCell>
        <mxCell id="akLYsxsd0B85VEAz4jzC-8" value="" style="endArrow=classic;html=1;rounded=0;exitX=0.1;exitY=0.5;exitDx=0;exitDy=0;exitPerimeter=0;entryX=0.5;entryY=1;entryDx=0;entryDy=0;" edge="1" parent="1" source="akLYsxsd0B85VEAz4jzC-4" target="L83Ct_4AwCxYPiwyGT1B-5">
          <mxGeometry width="50" height="50" relative="1" as="geometry">
            <mxPoint x="590" y="152" as="sourcePoint" />
            <mxPoint x="590" y="100" as="targetPoint" />
          </mxGeometry>
        </mxCell>
        <mxCell id="akLYsxsd0B85VEAz4jzC-9" value="" style="shape=curlyBracket;whiteSpace=wrap;html=1;rounded=1;flipH=1;labelPosition=right;verticalLabelPosition=middle;align=left;verticalAlign=middle;rotation=-90;" vertex="1" parent="1">
          <mxGeometry x="390" y="-180" width="20" height="520" as="geometry" />
        </mxCell>
        <mxCell id="akLYsxsd0B85VEAz4jzC-10" value="" style="endArrow=classic;html=1;rounded=0;exitX=0.1;exitY=0.5;exitDx=0;exitDy=0;exitPerimeter=0;entryX=0.5;entryY=1;entryDx=0;entryDy=0;" edge="1" parent="1" source="akLYsxsd0B85VEAz4jzC-9" target="L83Ct_4AwCxYPiwyGT1B-1">
          <mxGeometry width="50" height="50" relative="1" as="geometry">
            <mxPoint x="600" y="10" as="sourcePoint" />
            <mxPoint x="400" y="-10" as="targetPoint" />
          </mxGeometry>
        </mxCell>
      </root>
    </mxGraphModel>
  </diagram>
</mxfile>
